<svg id="svg" version="1.1" xmlns="http://www.w3.org/2000/svg" xmlns:xlink="http://www.w3.org/1999/xlink" width="400" height="56.399132321041215" viewBox="0, 0, 400,56.399132321041215"><g id="svgg"><path id="path0" d="M131.917 10.449 C 122.045 11.326,115.030 17.187,113.565 25.780 C 112.205 33.762,115.653 41.493,122.250 45.252 C 123.053 45.709,123.843 46.207,124.005 46.358 C 124.167 46.509,124.551 46.684,124.858 46.747 C 125.165 46.810,125.979 47.035,126.667 47.246 C 129.094 47.993,130.792 48.178,136.172 48.284 C 142.642 48.411,142.021 48.732,141.962 45.284 L 141.917 42.583 136.333 42.483 C 132.167 42.408,130.496 42.319,129.750 42.130 C 117.032 38.911,116.309 21.226,128.716 16.850 L 130.417 16.251 135.833 16.206 C 138.813 16.181,141.419 16.123,141.625 16.077 C 141.995 15.995,142.000 15.959,142.000 13.268 L 142.000 10.542 141.479 10.438 C 140.949 10.331,133.132 10.341,131.917 10.449 M15.601 10.764 C 15.391 11.311,15.490 15.784,15.716 15.972 C 15.862 16.093,18.510 16.167,23.841 16.201 C 32.626 16.255,32.726 16.268,34.417 17.481 C 36.905 19.267,36.631 23.835,33.942 25.411 C 32.074 26.505,31.809 26.536,23.500 26.621 C 18.677 26.670,15.841 26.761,15.708 26.870 C 15.414 27.112,15.415 31.388,15.709 31.633 C 15.846 31.746,18.874 31.831,24.418 31.877 C 33.522 31.953,33.828 31.981,35.559 32.864 C 39.025 34.632,39.063 39.862,35.623 41.606 C 33.706 42.577,33.952 42.554,24.587 42.624 C 18.839 42.667,15.853 42.748,15.712 42.865 C 15.421 43.106,15.410 47.843,15.700 48.133 C 16.157 48.591,32.569 48.326,35.016 47.822 C 36.510 47.514,39.228 46.633,39.583 46.340 C 39.767 46.190,40.227 45.859,40.607 45.606 C 43.514 43.668,44.885 40.196,44.333 36.165 C 43.925 33.186,42.173 31.063,38.917 29.603 C 36.871 28.685,36.878 28.794,38.779 27.426 C 41.273 25.632,42.483 22.873,42.297 19.403 C 42.032 14.447,38.265 11.257,31.991 10.678 C 28.696 10.373,15.725 10.441,15.601 10.764 M64.773 10.749 C 64.572 11.273,64.653 15.753,64.867 15.967 C 65.016 16.116,66.943 16.167,72.511 16.167 C 81.428 16.167,82.462 16.321,84.026 17.885 C 86.060 19.918,85.556 23.976,83.091 25.421 C 81.273 26.487,80.806 26.540,72.583 26.623 C 67.817 26.671,65.007 26.761,64.875 26.870 C 64.581 27.111,64.581 31.388,64.876 31.633 C 65.012 31.746,68.019 31.831,73.501 31.878 C 82.490 31.954,83.036 32.001,84.691 32.846 C 88.289 34.681,88.259 39.834,84.640 41.680 C 82.915 42.561,83.013 42.552,73.752 42.624 C 68.045 42.668,65.016 42.751,64.877 42.866 C 64.460 43.212,64.590 47.947,65.023 48.179 C 65.284 48.319,67.610 48.347,73.648 48.285 C 81.683 48.203,83.255 48.109,85.119 47.600 C 87.059 47.070,88.588 46.574,88.639 46.458 C 88.670 46.389,89.102 46.062,89.599 45.732 C 95.798 41.617,94.915 32.697,88.000 29.587 C 86.189 28.772,86.138 28.561,87.546 27.718 C 92.000 25.055,92.909 17.981,89.300 14.067 C 87.931 12.582,85.227 11.262,82.644 10.818 C 80.664 10.478,64.901 10.417,64.773 10.749 M179.667 10.690 C 169.416 11.533,162.074 18.946,161.946 28.583 L 161.917 30.750 164.833 30.797 C 168.804 30.862,168.432 31.080,168.548 28.628 C 168.878 21.660,173.385 17.008,180.455 16.337 C 181.442 16.244,184.369 16.167,186.958 16.167 L 191.667 16.167 191.667 13.333 L 191.667 10.500 186.542 10.523 C 183.723 10.536,180.629 10.611,179.667 10.690 M210.370 10.696 C 209.970 11.097,210.086 47.945,210.489 48.161 C 210.968 48.417,215.864 48.387,216.219 48.125 C 216.483 47.931,216.500 46.651,216.460 29.250 L 216.417 10.583 213.495 10.538 C 211.364 10.505,210.519 10.548,210.370 10.696 M235.413 10.708 C 235.371 10.823,235.317 14.313,235.293 18.465 C 235.256 24.960,235.215 26.034,235.000 26.170 C 234.856 26.261,232.476 26.329,229.395 26.331 C 222.987 26.334,223.644 25.975,223.704 29.439 L 223.750 32.083 229.284 32.167 C 233.510 32.230,234.868 32.301,235.034 32.467 C 235.203 32.636,235.260 34.324,235.295 40.300 C 235.335 47.196,235.366 47.936,235.618 48.125 C 235.968 48.387,240.865 48.417,241.344 48.161 C 241.666 47.989,241.881 11.586,241.566 10.764 C 241.431 10.414,235.540 10.361,235.413 10.708 M310.268 10.764 C 310.212 10.909,310.167 12.065,310.167 13.333 C 310.167 14.602,310.212 15.758,310.268 15.903 C 310.401 16.250,337.787 16.313,338.133 15.967 C 338.387 15.713,338.410 11.289,338.161 10.822 C 337.917 10.367,310.442 10.309,310.268 10.764 M376.333 10.690 C 365.999 11.540,358.500 19.232,358.500 28.983 C 358.500 30.988,358.218 30.834,361.889 30.831 C 365.376 30.828,365.095 31.024,365.219 28.500 C 365.517 22.432,369.107 18.068,374.984 16.631 C 376.251 16.321,377.099 16.270,382.333 16.182 L 388.250 16.083 388.298 13.667 C 388.324 12.338,388.304 11.081,388.253 10.875 L 388.160 10.500 383.122 10.523 C 380.351 10.536,377.296 10.611,376.333 10.690 M270.937 10.853 C 255.397 13.259,250.868 36.465,264.250 45.116 C 264.983 45.590,265.755 46.133,265.964 46.322 C 266.174 46.512,266.407 46.667,266.483 46.667 C 266.558 46.667,267.399 46.923,268.352 47.237 C 270.155 47.832,271.615 48.156,271.963 48.040 C 272.256 47.942,272.252 42.777,271.958 42.537 C 271.844 42.443,271.450 42.284,271.083 42.183 C 263.205 40.020,259.888 28.210,265.122 20.961 C 266.434 19.143,270.045 16.500,271.216 16.500 C 272.041 16.500,272.167 16.106,272.167 13.511 C 272.167 10.689,272.155 10.664,270.937 10.853 M278.241 10.879 C 278.195 10.999,278.178 12.251,278.204 13.661 L 278.250 16.224 279.606 16.826 C 284.930 19.188,287.399 23.171,287.409 29.417 C 287.418 35.055,285.491 38.714,281.143 41.309 C 280.673 41.590,278.430 42.500,278.209 42.500 C 278.186 42.500,278.167 43.748,278.167 45.273 L 278.167 48.047 279.069 47.954 C 279.861 47.872,283.252 46.849,283.777 46.533 C 290.620 42.421,293.742 37.037,293.748 29.333 C 293.754 21.471,290.085 15.388,283.439 12.240 C 281.025 11.096,278.420 10.414,278.241 10.879 M310.367 26.533 C 310.156 26.744,310.071 31.223,310.268 31.736 C 310.423 32.140,335.244 32.140,335.399 31.736 C 335.596 31.223,335.511 26.744,335.300 26.533 C 335.011 26.244,310.656 26.244,310.367 26.533 M185.211 28.705 C 185.117 28.821,185.003 29.667,184.958 30.583 C 184.700 35.732,181.429 40.121,176.646 41.736 C 174.851 42.342,174.350 42.386,168.167 42.484 L 161.917 42.583 161.871 45.249 C 161.830 47.609,161.857 47.939,162.111 48.124 C 162.697 48.552,173.602 48.317,176.016 47.824 C 177.947 47.429,180.766 46.594,181.083 46.322 C 181.267 46.165,181.795 45.847,182.258 45.616 C 184.556 44.466,187.584 41.640,188.861 39.453 C 189.183 38.900,190.433 36.341,190.669 35.750 C 191.206 34.405,191.706 31.356,191.638 29.833 L 191.583 28.583 188.482 28.538 C 186.128 28.504,185.339 28.544,185.211 28.705 M381.879 28.705 C 381.787 28.821,381.667 29.667,381.611 30.583 C 381.294 35.818,378.099 40.120,373.333 41.729 C 371.515 42.343,371.031 42.386,364.833 42.484 L 358.583 42.583 358.538 45.284 C 358.479 48.737,357.782 48.404,364.824 48.282 C 370.711 48.180,371.957 48.064,374.407 47.395 C 375.237 47.168,376.254 46.903,376.667 46.806 C 377.079 46.710,377.567 46.497,377.750 46.334 C 377.933 46.171,378.421 45.869,378.833 45.663 C 384.301 42.933,388.183 36.637,388.235 30.417 L 388.250 28.583 385.148 28.538 C 382.794 28.504,382.006 28.544,381.879 28.705 M310.279 42.610 C 310.217 42.672,310.167 43.912,310.167 45.365 L 310.167 48.008 310.594 48.171 C 311.283 48.433,337.695 48.388,338.056 48.124 C 338.309 47.939,338.337 47.609,338.296 45.249 L 338.250 42.583 324.320 42.541 C 316.659 42.517,310.340 42.549,310.279 42.610 " stroke="none" fill="#f4f4f4" fill-rule="evenodd"></path><path id="path1" d="M0.000 28.167 L 0.000 56.333 200.000 56.333 L 400.000 56.333 400.000 28.167 L 400.000 0.000 200.000 0.000 L 0.000 0.000 0.000 28.167 M32.132 10.167 C 36.432 10.611,39.539 12.202,41.408 14.915 C 44.124 18.858,42.864 25.449,38.918 27.943 C 37.964 28.545,37.986 28.589,39.703 29.453 C 47.202 33.229,46.669 44.076,38.833 47.167 C 35.202 48.600,34.550 48.667,24.242 48.667 L 15.325 48.667 15.151 48.210 C 14.897 47.541,15.021 42.745,15.300 42.466 C 15.469 42.297,17.438 42.230,24.383 42.158 C 33.908 42.059,33.440 42.101,35.435 41.172 C 38.246 39.864,38.481 35.386,35.830 33.654 C 33.974 32.441,34.087 32.454,24.384 32.373 C 17.537 32.315,15.620 32.253,15.384 32.080 C 14.985 31.788,14.921 26.588,15.314 26.345 C 15.440 26.267,19.040 26.168,23.314 26.125 C 31.971 26.038,32.115 26.019,33.957 24.774 C 35.914 23.450,36.138 19.612,34.351 18.033 C 32.847 16.704,31.366 16.509,22.714 16.504 C 15.601 16.500,15.339 16.489,15.173 16.178 C 14.878 15.628,14.950 10.812,15.259 10.370 L 15.519 10.000 23.016 10.000 C 27.139 10.000,31.241 10.075,32.132 10.167 M81.250 10.168 C 88.112 10.922,92.010 14.480,92.028 20.007 C 92.038 23.322,90.332 26.709,87.989 28.026 C 87.120 28.514,87.158 28.569,89.040 29.566 C 92.641 31.472,94.177 33.992,94.161 37.967 C 94.140 42.922,91.198 46.429,85.833 47.893 C 85.329 48.031,84.617 48.239,84.250 48.355 C 83.319 48.652,64.748 48.775,64.401 48.487 C 64.124 48.257,64.060 42.927,64.330 42.500 C 64.466 42.285,65.735 42.237,73.452 42.155 C 83.473 42.049,83.545 42.041,85.221 40.764 C 87.658 38.908,87.243 34.647,84.493 33.301 C 82.742 32.444,82.822 32.451,73.369 32.347 C 65.728 32.264,64.465 32.215,64.330 32.000 C 64.015 31.501,64.128 26.532,64.458 26.357 C 64.619 26.272,68.221 26.168,72.500 26.125 C 80.856 26.042,80.801 26.048,82.669 25.082 C 85.602 23.565,85.495 18.723,82.500 17.389 C 80.724 16.598,79.653 16.509,71.908 16.504 C 66.425 16.501,64.516 16.449,64.367 16.300 C 64.036 15.969,64.091 10.600,64.429 10.262 C 64.740 9.950,78.567 9.873,81.250 10.168 M142.300 10.200 C 142.581 10.481,142.581 16.019,142.300 16.300 C 142.154 16.446,140.814 16.500,137.312 16.500 C 131.149 16.500,129.987 16.684,127.000 18.137 C 119.623 21.724,118.082 33.198,124.227 38.789 C 127.046 41.355,129.567 42.000,136.772 42.000 C 139.957 42.000,141.976 42.064,142.178 42.173 C 142.525 42.358,142.682 47.955,142.355 48.471 C 142.140 48.810,129.983 48.642,128.583 48.281 C 123.948 47.085,121.229 45.660,118.361 42.924 C 113.190 37.992,111.221 29.231,113.826 22.750 C 114.420 21.271,114.629 20.803,115.052 20.000 C 117.196 15.928,121.379 12.552,126.115 11.070 C 129.175 10.113,129.943 10.033,136.258 10.016 C 140.598 10.004,142.151 10.051,142.300 10.200 M191.905 10.262 C 192.243 10.600,192.298 16.135,191.967 16.467 C 191.821 16.613,190.441 16.669,186.842 16.675 C 178.689 16.688,176.578 17.118,173.586 19.373 C 170.574 21.642,169.000 25.179,169.000 29.673 C 169.000 31.384,169.117 31.333,165.167 31.333 C 161.095 31.333,161.333 31.470,161.333 29.129 C 161.333 19.003,168.959 11.089,179.583 10.187 C 182.830 9.912,191.608 9.965,191.905 10.262 M216.719 10.208 C 216.983 10.403,217.000 11.707,216.960 29.500 L 216.917 48.583 213.455 48.628 L 209.994 48.673 209.828 48.237 C 209.546 47.495,209.692 10.621,209.979 10.276 C 210.276 9.918,216.244 9.858,216.719 10.208 M241.951 10.500 C 242.217 11.025,242.268 47.545,242.004 48.239 L 241.842 48.667 238.431 48.667 C 235.885 48.667,234.985 48.614,234.885 48.458 C 234.811 48.344,234.713 44.762,234.667 40.500 L 234.583 32.750 229.046 32.706 C 223.666 32.663,223.504 32.653,223.327 32.322 C 223.115 31.925,223.170 26.274,223.389 26.055 C 223.465 25.979,226.034 25.895,229.097 25.869 L 234.667 25.821 234.667 18.244 C 234.667 8.927,234.172 9.976,238.540 10.038 L 241.740 10.083 241.951 10.500 M338.521 10.275 C 338.887 10.715,338.945 15.721,338.591 16.262 L 338.326 16.667 324.258 16.667 C 311.692 16.667,310.163 16.639,309.929 16.405 C 309.530 16.006,309.542 10.747,309.942 10.305 C 310.349 9.856,338.148 9.827,338.521 10.275 M388.571 10.262 C 389.010 10.701,388.956 16.256,388.511 16.494 C 388.311 16.601,386.362 16.670,383.386 16.675 C 376.829 16.686,374.611 16.964,372.371 18.054 C 368.254 20.058,365.936 23.739,365.715 28.626 C 365.643 30.220,365.546 30.930,365.378 31.098 C 365.088 31.388,358.851 31.444,358.322 31.161 C 357.791 30.876,357.905 27.007,358.511 24.750 C 358.788 23.717,359.180 22.451,359.337 22.083 C 359.683 21.271,360.514 19.554,360.706 19.256 C 364.088 13.999,369.662 10.746,376.250 10.187 C 379.496 9.912,388.274 9.965,388.571 10.262 M272.467 10.367 C 272.607 10.507,272.667 11.430,272.667 13.452 L 272.667 16.338 272.125 16.668 C 271.827 16.850,271.476 16.999,271.346 16.999 C 270.571 17.001,268.203 18.438,266.983 19.646 C 265.295 21.316,264.722 22.230,263.662 24.943 C 263.584 25.141,263.394 26.185,263.237 27.264 C 262.271 33.942,265.740 39.999,271.583 41.834 C 272.697 42.184,272.667 42.084,272.667 45.357 C 272.667 48.837,272.642 48.886,271.061 48.508 C 270.615 48.402,269.987 48.255,269.667 48.182 C 266.916 47.556,262.822 45.122,260.917 42.978 C 259.050 40.879,257.167 37.848,257.167 36.945 C 257.167 36.829,257.107 36.662,257.034 36.575 C 256.907 36.422,256.581 35.404,256.158 33.833 C 255.678 32.052,255.669 26.684,256.143 25.126 C 256.234 24.828,256.515 23.908,256.769 23.083 C 258.643 16.987,263.730 12.137,269.885 10.576 C 271.646 10.130,272.186 10.086,272.467 10.367 M281.083 10.776 C 287.583 12.821,291.727 17.272,293.937 24.583 C 294.382 26.054,294.387 32.225,293.945 33.917 C 292.791 38.339,290.744 41.704,287.500 44.512 C 286.757 45.155,283.899 47.000,283.646 47.000 C 283.511 47.000,283.329 47.065,283.242 47.145 C 283.155 47.224,282.708 47.420,282.250 47.579 C 281.792 47.738,281.267 47.929,281.083 48.002 C 277.933 49.263,277.500 48.921,277.500 45.174 C 277.500 42.296,277.527 42.234,279.049 41.683 C 281.961 40.627,285.833 37.063,285.833 35.439 C 285.833 35.300,285.903 35.144,285.987 35.091 C 286.072 35.039,286.194 34.756,286.258 34.462 C 286.323 34.168,286.433 33.813,286.503 33.672 C 286.573 33.532,286.721 32.929,286.832 32.333 C 288.105 25.493,284.696 18.952,278.881 17.079 C 277.580 16.660,277.583 16.669,277.583 13.500 C 277.583 9.753,277.654 9.697,281.083 10.776 M335.572 25.996 L 336.000 26.158 336.000 29.129 C 336.000 31.218,335.941 32.159,335.800 32.300 C 335.404 32.696,310.053 32.577,309.839 32.178 C 309.458 31.465,309.623 26.383,310.037 26.093 C 310.478 25.784,334.772 25.692,335.572 25.996 M191.905 28.262 C 192.105 28.462,192.167 28.885,192.166 30.054 C 192.165 36.471,188.316 42.876,182.583 45.999 C 182.033 46.299,181.502 46.608,181.403 46.686 C 181.024 46.984,177.506 48.032,175.843 48.342 C 173.718 48.738,161.908 48.841,161.533 48.467 C 161.151 48.084,161.262 42.383,161.656 42.173 C 161.860 42.063,164.083 42.000,167.728 42.000 C 174.888 42.000,176.117 41.795,178.878 40.136 C 182.255 38.107,184.125 34.811,184.479 30.264 C 184.593 28.801,184.681 28.402,184.926 28.223 C 185.408 27.870,191.548 27.905,191.905 28.262 M388.592 28.283 C 389.077 28.768,388.742 32.998,388.040 35.250 C 386.011 41.757,380.156 46.909,373.333 48.192 C 372.829 48.287,372.079 48.428,371.667 48.505 C 370.430 48.739,358.437 48.704,358.200 48.467 C 357.911 48.177,357.918 42.406,358.208 42.218 C 358.323 42.144,361.267 42.042,364.750 41.991 C 371.823 41.888,372.539 41.781,374.949 40.468 C 378.744 38.400,381.160 34.349,381.169 30.039 C 381.173 27.901,380.892 28.045,385.113 28.019 C 387.913 28.002,388.345 28.035,388.592 28.283 M338.574 42.370 C 338.877 42.803,338.955 47.493,338.671 48.239 L 338.508 48.667 324.260 48.667 C 310.344 48.667,310.008 48.659,309.839 48.344 C 309.539 47.783,309.615 42.575,309.929 42.262 C 310.163 42.028,311.691 42.000,324.252 42.000 L 338.314 42.000 338.574 42.370 " stroke="none" fill="#141414" fill-rule="evenodd"></path><path id="path2" d="M130.752 10.348 C 123.969 11.079,118.123 14.798,115.249 20.209 C 110.738 28.703,113.329 39.704,121.029 44.750 C 123.602 46.436,124.344 46.855,124.627 46.781 C 124.900 46.710,124.900 46.704,124.625 46.686 C 124.465 46.675,124.193 46.535,124.022 46.375 C 123.850 46.215,123.053 45.709,122.250 45.252 C 115.653 41.493,112.205 33.762,113.565 25.780 C 114.893 17.994,121.017 12.215,129.500 10.744 C 131.218 10.446,139.851 10.198,141.243 10.407 L 142.000 10.520 142.000 13.257 C 142.000 15.959,141.995 15.995,141.625 16.077 C 141.419 16.123,138.813 16.181,135.833 16.206 L 130.417 16.251 128.716 16.850 C 116.309 21.226,117.032 38.911,129.750 42.130 C 130.496 42.319,132.167 42.408,136.333 42.483 L 141.917 42.583 141.962 45.284 C 142.021 48.732,142.642 48.411,136.172 48.284 C 130.758 48.177,129.038 47.988,126.667 47.234 C 125.157 46.755,124.594 46.721,125.750 47.179 C 128.157 48.132,131.405 48.487,137.780 48.495 C 141.225 48.499,141.847 48.462,142.071 48.238 C 142.416 47.894,142.463 42.815,142.125 42.535 C 141.994 42.426,139.870 42.336,136.417 42.293 C 131.435 42.232,130.791 42.191,129.583 41.866 C 117.238 38.536,116.776 21.058,128.928 17.020 C 130.659 16.444,131.929 16.336,136.946 16.335 C 141.144 16.334,141.845 16.297,142.071 16.071 C 142.373 15.769,142.459 10.957,142.170 10.500 C 141.986 10.207,133.148 10.089,130.752 10.348 M15.542 10.444 C 15.102 10.621,15.260 16.144,15.708 16.246 C 15.915 16.293,19.571 16.351,23.833 16.376 L 31.583 16.420 32.706 16.855 C 36.705 18.405,37.158 23.285,33.498 25.387 C 31.920 26.293,31.225 26.365,23.000 26.479 L 15.417 26.583 15.371 29.204 C 15.325 31.812,15.327 31.825,15.704 31.908 C 15.913 31.954,19.758 32.022,24.250 32.059 C 33.081 32.132,33.579 32.177,35.405 33.070 C 38.108 34.393,38.842 38.219,36.814 40.418 C 35.108 42.269,33.629 42.500,23.476 42.500 C 19.288 42.500,15.742 42.546,15.597 42.601 C 15.217 42.747,15.201 48.016,15.580 48.331 C 16.054 48.724,33.208 48.456,35.167 48.024 C 41.553 46.617,44.691 43.257,44.683 37.833 C 44.676 33.629,42.792 31.009,38.458 29.179 C 37.597 28.816,37.433 28.420,38.042 28.173 C 40.518 27.170,42.578 23.485,42.564 20.083 C 42.543 14.882,39.167 11.500,33.083 10.586 C 31.460 10.342,16.102 10.217,15.542 10.444 M64.708 10.438 C 64.269 10.627,64.427 16.144,64.875 16.246 C 65.081 16.293,68.737 16.351,73.000 16.376 L 80.750 16.420 81.873 16.855 C 85.836 18.391,86.280 23.615,82.601 25.415 C 80.702 26.345,80.504 26.365,72.250 26.478 L 64.583 26.583 64.583 29.250 L 64.583 31.917 73.000 32.014 C 81.821 32.115,82.593 32.177,84.242 32.906 C 87.976 34.557,88.192 39.627,84.606 41.448 C 82.776 42.379,82.753 42.381,73.501 42.456 C 67.895 42.502,64.846 42.587,64.709 42.700 C 64.420 42.940,64.412 48.012,64.700 48.300 C 64.942 48.542,78.390 48.577,81.595 48.343 C 89.510 47.768,93.821 44.063,93.831 37.827 C 93.837 33.556,91.942 30.981,87.375 29.057 C 86.626 28.742,86.703 28.509,87.777 27.833 C 91.763 25.327,93.015 19.055,90.331 15.036 C 88.952 12.971,86.392 11.403,83.277 10.714 C 82.091 10.451,65.258 10.202,64.708 10.438 M179.500 10.443 C 176.778 10.866,175.721 11.098,174.308 11.584 C 166.585 14.241,161.803 20.690,161.762 28.500 L 161.750 30.917 165.167 30.917 L 168.583 30.917 168.702 28.917 C 169.054 22.981,172.279 18.610,177.417 17.108 C 177.875 16.974,178.438 16.810,178.667 16.742 C 178.896 16.675,181.908 16.574,185.361 16.518 C 188.814 16.462,191.702 16.354,191.778 16.278 C 191.989 16.067,192.051 11.322,191.849 10.791 L 191.675 10.333 185.796 10.356 C 182.562 10.369,179.729 10.408,179.500 10.443 M210.200 10.533 C 209.910 10.824,209.910 48.010,210.200 48.300 C 210.583 48.683,216.450 48.572,216.661 48.178 C 216.777 47.961,216.833 41.808,216.833 29.417 C 216.833 17.025,216.777 10.872,216.661 10.656 C 216.450 10.262,210.583 10.150,210.200 10.533 M235.173 10.656 C 235.061 10.864,235.000 13.601,235.000 18.396 C 235.000 24.147,234.953 25.844,234.792 25.948 C 234.677 26.023,232.108 26.121,229.083 26.167 L 223.583 26.250 223.538 29.185 C 223.502 31.497,223.541 32.159,223.719 32.308 C 223.874 32.436,225.666 32.509,229.431 32.539 L 234.917 32.583 235.000 40.333 C 235.046 44.596,235.144 48.177,235.218 48.292 C 235.406 48.582,241.344 48.590,241.633 48.300 C 241.924 48.010,241.924 10.824,241.633 10.533 C 241.250 10.150,235.383 10.262,235.173 10.656 M310.200 10.533 C 309.955 10.778,309.922 15.786,310.163 16.167 C 310.302 16.386,312.050 16.417,324.250 16.417 C 336.450 16.417,338.198 16.386,338.337 16.167 C 338.578 15.786,338.545 10.778,338.300 10.533 C 338.010 10.244,310.490 10.244,310.200 10.533 M375.237 10.579 C 365.269 11.946,358.466 19.199,358.427 28.500 L 358.417 30.917 361.833 30.917 L 365.250 30.917 365.366 28.917 C 365.753 22.232,369.551 17.822,375.906 16.678 C 376.473 16.576,379.187 16.500,382.270 16.500 C 385.393 16.500,387.826 16.431,388.076 16.336 L 388.508 16.172 388.462 13.294 L 388.417 10.417 382.583 10.394 C 378.725 10.379,376.238 10.442,375.237 10.579 M31.991 10.678 C 38.265 11.257,42.032 14.447,42.297 19.403 C 42.483 22.873,41.273 25.632,38.779 27.426 C 36.878 28.794,36.871 28.685,38.917 29.603 C 42.173 31.063,43.925 33.186,44.333 36.165 C 44.885 40.196,43.514 43.668,40.607 45.606 C 40.227 45.859,39.767 46.190,39.583 46.340 C 39.228 46.633,36.510 47.514,35.016 47.822 C 32.569 48.326,16.157 48.591,15.700 48.133 C 15.410 47.843,15.421 43.106,15.712 42.865 C 15.853 42.748,18.839 42.667,24.587 42.624 C 33.952 42.554,33.706 42.577,35.623 41.606 C 39.063 39.862,39.025 34.632,35.559 32.864 C 33.828 31.981,33.522 31.953,24.418 31.877 C 18.874 31.831,15.846 31.746,15.709 31.633 C 15.415 31.388,15.414 27.112,15.708 26.870 C 15.841 26.761,18.677 26.670,23.500 26.621 C 31.809 26.536,32.074 26.505,33.942 25.411 C 36.631 23.835,36.905 19.267,34.417 17.481 C 32.726 16.268,32.626 16.255,23.841 16.201 C 18.510 16.167,15.862 16.093,15.716 15.972 C 15.490 15.784,15.391 11.311,15.601 10.764 C 15.725 10.441,28.696 10.373,31.991 10.678 M82.644 10.818 C 85.227 11.262,87.931 12.582,89.300 14.067 C 92.909 17.981,92.000 25.055,87.546 27.718 C 86.138 28.561,86.189 28.772,88.000 29.587 C 94.915 32.697,95.798 41.617,89.599 45.732 C 89.102 46.062,88.670 46.389,88.639 46.458 C 88.588 46.574,87.059 47.070,85.119 47.600 C 83.255 48.109,81.683 48.203,73.648 48.285 C 67.610 48.347,65.284 48.319,65.023 48.179 C 64.590 47.947,64.460 43.212,64.877 42.866 C 65.016 42.751,68.045 42.668,73.752 42.624 C 83.013 42.552,82.915 42.561,84.640 41.680 C 88.259 39.834,88.289 34.681,84.691 32.846 C 83.036 32.001,82.490 31.954,73.501 31.878 C 68.019 31.831,65.012 31.746,64.876 31.633 C 64.581 31.388,64.581 27.111,64.875 26.870 C 65.007 26.761,67.817 26.671,72.583 26.623 C 80.806 26.540,81.273 26.487,83.091 25.421 C 85.556 23.976,86.060 19.918,84.026 17.885 C 82.462 16.321,81.428 16.167,72.511 16.167 C 66.943 16.167,65.016 16.116,64.867 15.967 C 64.653 15.753,64.572 11.273,64.773 10.749 C 64.901 10.417,80.664 10.478,82.644 10.818 M191.667 13.333 L 191.667 16.167 186.958 16.167 C 184.369 16.167,181.442 16.244,180.455 16.337 C 173.385 17.008,168.878 21.660,168.548 28.628 C 168.432 31.080,168.804 30.862,164.833 30.797 L 161.917 30.750 161.946 28.583 C 162.074 18.946,169.416 11.533,179.667 10.690 C 180.629 10.611,183.723 10.536,186.542 10.523 L 191.667 10.500 191.667 13.333 M216.460 29.250 C 216.500 46.651,216.483 47.931,216.219 48.125 C 215.864 48.387,210.968 48.417,210.489 48.161 C 210.086 47.945,209.970 11.097,210.370 10.696 C 210.519 10.548,211.364 10.505,213.495 10.538 L 216.417 10.583 216.460 29.250 M241.566 10.764 C 241.881 11.586,241.666 47.989,241.344 48.161 C 240.865 48.417,235.968 48.387,235.618 48.125 C 235.366 47.936,235.335 47.196,235.295 40.300 C 235.260 34.324,235.203 32.636,235.034 32.467 C 234.868 32.301,233.510 32.230,229.284 32.167 L 223.750 32.083 223.704 29.439 C 223.644 25.975,222.987 26.334,229.395 26.331 C 232.476 26.329,234.856 26.261,235.000 26.170 C 235.215 26.034,235.256 24.960,235.293 18.465 C 235.317 14.313,235.371 10.823,235.413 10.708 C 235.540 10.361,241.431 10.414,241.566 10.764 M269.917 10.833 C 251.424 15.661,251.424 43.014,269.917 47.931 C 272.568 48.636,272.500 48.705,272.500 45.326 C 272.500 42.454,272.455 42.320,271.417 42.075 C 268.029 41.276,264.475 37.496,263.356 33.500 C 261.342 26.309,264.502 19.369,270.943 16.838 C 272.558 16.203,272.495 16.344,272.498 13.364 C 272.501 10.255,272.423 10.179,269.917 10.833 M278.033 10.700 C 277.895 10.838,277.833 11.685,277.833 13.432 C 277.833 16.374,277.837 16.382,279.417 16.994 C 287.600 20.163,290.076 31.964,283.974 38.724 C 282.801 40.024,280.986 41.281,279.496 41.826 C 277.768 42.457,277.833 42.318,277.833 45.339 C 277.833 48.950,277.801 48.940,283.000 47.030 C 284.549 46.461,287.426 44.415,288.868 42.857 C 297.866 33.138,295.010 17.400,283.252 11.905 C 280.972 10.839,278.471 10.262,278.033 10.700 M338.161 10.822 C 338.410 11.289,338.387 15.713,338.133 15.967 C 337.787 16.313,310.401 16.250,310.268 15.903 C 310.212 15.758,310.167 14.602,310.167 13.333 C 310.167 12.065,310.212 10.909,310.268 10.764 C 310.442 10.309,337.917 10.367,338.161 10.822 M388.253 10.875 C 388.304 11.081,388.324 12.338,388.298 13.667 L 388.250 16.083 382.333 16.182 C 377.099 16.270,376.251 16.321,374.984 16.631 C 369.107 18.068,365.517 22.432,365.219 28.500 C 365.095 31.024,365.376 30.828,361.889 30.831 C 358.218 30.834,358.500 30.988,358.500 28.983 C 358.500 19.232,365.999 11.540,376.333 10.690 C 377.296 10.611,380.351 10.536,383.122 10.523 L 388.160 10.500 388.253 10.875 M272.167 13.511 C 272.167 16.106,272.041 16.500,271.216 16.500 C 270.045 16.500,266.434 19.143,265.122 20.961 C 259.888 28.210,263.205 40.020,271.083 42.183 C 271.450 42.284,271.844 42.443,271.958 42.537 C 272.252 42.777,272.256 47.942,271.963 48.040 C 271.615 48.156,270.155 47.832,268.352 47.237 C 267.399 46.923,266.558 46.667,266.483 46.667 C 266.407 46.667,266.174 46.512,265.964 46.322 C 265.755 46.133,264.983 45.590,264.250 45.116 C 251.688 36.995,254.486 16.166,268.776 11.426 C 272.113 10.319,272.167 10.351,272.167 13.511 M280.823 11.188 C 291.996 14.522,297.255 27.903,291.618 38.655 C 290.008 41.726,287.375 44.372,283.777 46.533 C 283.252 46.849,279.861 47.872,279.069 47.954 L 278.167 48.047 278.167 45.273 C 278.167 43.748,278.186 42.500,278.209 42.500 C 278.430 42.500,280.673 41.590,281.143 41.309 C 285.491 38.714,287.418 35.055,287.409 29.417 C 287.399 23.171,284.930 19.188,279.606 16.826 L 278.250 16.224 278.204 13.661 C 278.143 10.261,278.040 10.358,280.823 11.188 M310.200 26.367 C 310.061 26.506,310.000 27.394,310.000 29.287 L 310.000 32.008 310.428 32.171 C 311.176 32.455,335.032 32.385,335.426 32.097 C 335.814 31.814,336.019 27.159,335.673 26.511 C 335.449 26.093,310.615 25.952,310.200 26.367 M335.300 26.533 C 335.511 26.744,335.596 31.223,335.399 31.736 C 335.244 32.140,310.423 32.140,310.268 31.736 C 310.071 31.223,310.156 26.744,310.367 26.533 C 310.656 26.244,335.011 26.244,335.300 26.533 M185.042 28.542 C 184.950 28.656,184.835 29.425,184.785 30.250 C 184.413 36.402,181.141 40.231,174.667 42.095 C 174.438 42.161,171.438 42.260,168.000 42.316 L 161.750 42.417 161.704 45.228 C 161.643 48.960,160.825 48.562,168.330 48.451 C 175.157 48.351,176.026 48.251,179.433 47.166 C 184.510 45.551,189.273 40.735,190.971 35.500 C 191.692 33.277,192.185 29.323,191.825 28.650 C 191.612 28.253,185.351 28.153,185.042 28.542 M381.733 28.459 C 381.631 28.528,381.506 29.327,381.453 30.250 C 381.125 36.006,377.899 40.120,372.417 41.774 C 370.932 42.222,370.854 42.227,364.667 42.322 L 358.417 42.417 358.417 45.417 L 358.417 48.417 363.000 48.464 C 372.775 48.565,375.944 47.913,380.571 44.848 C 385.389 41.657,388.625 35.600,388.465 30.076 L 388.417 28.417 385.167 28.376 C 383.379 28.353,381.834 28.390,381.733 28.459 M191.638 29.833 C 191.706 31.356,191.206 34.405,190.669 35.750 C 190.433 36.341,189.183 38.900,188.861 39.453 C 187.584 41.640,184.556 44.466,182.258 45.616 C 181.795 45.847,181.267 46.165,181.083 46.322 C 180.766 46.594,177.947 47.429,176.016 47.824 C 173.602 48.317,162.697 48.552,162.111 48.124 C 161.857 47.939,161.830 47.609,161.871 45.249 L 161.917 42.583 168.167 42.484 C 174.350 42.386,174.851 42.342,176.646 41.736 C 181.429 40.121,184.700 35.732,184.958 30.583 C 185.070 28.341,184.822 28.485,188.482 28.538 L 191.583 28.583 191.638 29.833 M388.235 30.417 C 388.183 36.637,384.301 42.933,378.833 45.663 C 378.421 45.869,377.933 46.171,377.750 46.334 C 377.567 46.497,377.079 46.710,376.667 46.806 C 376.254 46.903,375.237 47.168,374.407 47.395 C 371.957 48.064,370.711 48.180,364.824 48.282 C 357.782 48.404,358.479 48.737,358.538 45.284 L 358.583 42.583 364.833 42.484 C 371.031 42.386,371.515 42.343,373.333 41.729 C 378.099 40.120,381.294 35.818,381.611 30.583 C 381.747 28.338,381.493 28.485,385.148 28.538 L 388.250 28.583 388.235 30.417 M310.112 42.444 C 309.902 42.653,309.984 48.084,310.200 48.300 C 310.517 48.617,338.054 48.587,338.317 48.270 C 338.448 48.111,338.494 47.160,338.462 45.228 L 338.417 42.417 324.320 42.374 C 316.567 42.351,310.174 42.382,310.112 42.444 M338.296 45.249 C 338.337 47.609,338.309 47.939,338.056 48.124 C 337.695 48.388,311.283 48.433,310.594 48.171 L 310.167 48.008 310.167 45.365 C 310.167 43.912,310.217 42.672,310.279 42.610 C 310.340 42.549,316.659 42.517,324.320 42.541 L 338.250 42.583 338.296 45.249 " stroke="none" fill="#848484" fill-rule="evenodd"></path><path id="path3" d="M15.259 10.370 C 14.950 10.812,14.878 15.628,15.173 16.178 C 15.339 16.489,15.601 16.500,22.714 16.504 C 31.366 16.509,32.847 16.704,34.351 18.033 C 36.138 19.612,35.914 23.450,33.957 24.774 C 32.115 26.019,31.971 26.038,23.314 26.125 C 19.040 26.168,15.440 26.267,15.314 26.345 C 14.903 26.599,14.987 31.789,15.407 32.097 C 15.674 32.292,16.959 32.333,22.824 32.334 C 26.725 32.335,30.667 32.370,31.583 32.412 C 32.819 32.470,33.078 32.450,32.583 32.338 C 32.217 32.254,28.298 32.182,23.875 32.176 C 14.160 32.165,15.167 32.503,15.167 29.250 C 15.167 26.010,14.292 26.334,23.042 26.330 C 31.679 26.327,32.476 26.215,34.427 24.730 C 36.256 23.337,36.264 19.478,34.440 17.876 C 32.903 16.527,31.451 16.336,22.714 16.335 C 15.765 16.333,15.506 16.322,15.339 16.011 C 15.118 15.599,15.113 11.329,15.333 10.752 L 15.499 10.315 24.458 10.373 C 35.380 10.443,36.776 10.714,39.696 13.325 C 44.115 17.277,43.374 25.476,38.365 28.067 C 37.538 28.494,37.707 28.758,39.277 29.494 C 46.058 32.671,46.835 41.297,40.750 45.848 C 37.755 48.088,35.158 48.500,24.028 48.500 C 14.009 48.500,15.167 48.902,15.167 45.428 C 15.167 41.961,14.085 42.333,24.158 42.333 C 35.073 42.333,36.366 42.022,37.586 39.103 C 38.733 36.356,36.380 32.436,33.629 32.510 C 33.404 32.516,33.589 32.630,34.083 32.788 C 38.215 34.115,39.079 39.476,35.435 41.172 C 33.440 42.101,33.908 42.059,24.383 42.158 C 17.438 42.230,15.469 42.297,15.300 42.466 C 15.021 42.745,14.897 47.541,15.151 48.210 L 15.325 48.667 24.242 48.667 C 34.550 48.667,35.202 48.600,38.833 47.167 C 46.669 44.076,47.202 33.229,39.703 29.453 C 37.986 28.589,37.964 28.545,38.918 27.943 C 43.545 25.019,44.226 17.302,40.195 13.458 C 37.094 10.501,34.605 10.000,23.016 10.000 L 15.519 10.000 15.259 10.370 M64.429 10.262 C 64.091 10.600,64.036 15.969,64.367 16.300 C 64.516 16.449,66.425 16.501,71.908 16.504 C 79.653 16.509,80.724 16.598,82.500 17.389 C 85.495 18.723,85.602 23.565,82.669 25.082 C 80.801 26.048,80.856 26.042,72.500 26.125 C 68.221 26.168,64.619 26.272,64.458 26.357 C 64.128 26.532,64.015 31.502,64.330 32.000 C 64.521 32.303,64.796 32.313,74.917 32.375 C 79.042 32.400,82.192 32.373,81.917 32.314 C 81.642 32.255,77.779 32.196,73.333 32.184 C 63.412 32.157,64.431 32.479,64.370 29.347 C 64.305 25.978,63.391 26.333,72.118 26.333 C 79.942 26.333,80.834 26.253,82.531 25.398 C 86.085 23.609,85.819 18.412,82.103 17.022 C 80.484 16.416,79.295 16.336,71.908 16.335 C 66.551 16.334,64.683 16.283,64.533 16.133 C 64.253 15.853,64.253 10.813,64.533 10.533 C 64.870 10.197,80.821 10.255,82.828 10.600 C 86.499 11.231,89.636 13.278,90.864 15.844 C 92.942 20.187,91.473 25.694,87.625 27.988 C 86.725 28.524,86.834 28.739,88.375 29.466 C 96.605 33.349,95.696 44.360,86.899 47.346 C 83.767 48.409,82.685 48.500,73.109 48.500 C 63.192 48.500,64.333 48.895,64.333 45.459 C 64.333 42.034,63.139 42.433,73.695 42.329 C 83.677 42.230,83.518 42.249,85.338 40.913 C 87.383 39.412,87.683 36.201,85.961 34.245 C 85.232 33.417,83.547 32.492,82.795 32.508 C 82.553 32.513,82.686 32.606,83.167 32.767 C 86.375 33.842,87.802 36.872,86.333 39.492 C 84.988 41.890,84.258 42.041,73.452 42.155 C 65.735 42.237,64.466 42.285,64.330 42.500 C 64.060 42.927,64.124 48.257,64.401 48.487 C 64.748 48.775,83.319 48.652,84.250 48.355 C 84.617 48.239,85.329 48.031,85.833 47.893 C 91.198 46.429,94.140 42.922,94.161 37.967 C 94.177 33.992,92.641 31.472,89.040 29.566 C 87.158 28.569,87.120 28.514,87.989 28.026 C 90.332 26.709,92.038 23.322,92.028 20.007 C 92.010 14.480,88.112 10.922,81.250 10.168 C 78.567 9.873,64.740 9.950,64.429 10.262 M128.948 10.338 C 121.841 11.817,116.633 15.835,114.265 21.667 C 114.097 22.079,113.900 22.567,113.826 22.750 C 111.221 29.231,113.190 37.992,118.361 42.924 C 121.229 45.660,123.948 47.085,128.583 48.281 C 129.983 48.642,142.140 48.810,142.355 48.471 C 142.682 47.955,142.525 42.358,142.178 42.173 C 141.976 42.064,139.957 42.000,136.772 42.000 C 129.567 42.000,127.046 41.355,124.227 38.789 C 118.082 33.198,119.623 21.724,127.000 18.137 C 129.987 16.684,131.149 16.500,137.312 16.500 C 140.814 16.500,142.154 16.446,142.300 16.300 C 142.581 16.019,142.581 10.481,142.300 10.200 C 141.942 9.842,130.776 9.957,128.948 10.338 M179.583 10.187 C 168.959 11.089,161.333 19.003,161.333 29.129 C 161.333 31.470,161.095 31.333,165.167 31.333 C 169.117 31.333,169.000 31.384,169.000 29.673 C 169.000 25.179,170.574 21.642,173.586 19.373 C 176.578 17.118,178.689 16.688,186.842 16.675 C 190.441 16.669,191.821 16.613,191.967 16.467 C 192.298 16.135,192.243 10.600,191.905 10.262 C 191.608 9.965,182.830 9.912,179.583 10.187 M209.979 10.276 C 209.692 10.621,209.546 47.495,209.828 48.237 L 209.994 48.673 213.455 48.628 L 216.917 48.583 216.960 29.500 C 217.000 11.707,216.983 10.403,216.719 10.208 C 216.244 9.858,210.276 9.918,209.979 10.276 M235.004 10.330 C 234.675 10.658,234.667 10.862,234.667 18.244 L 234.667 25.821 229.097 25.869 C 226.034 25.895,223.465 25.979,223.389 26.055 C 223.170 26.274,223.115 31.925,223.327 32.322 C 223.504 32.653,223.666 32.663,229.046 32.706 L 234.583 32.750 234.667 40.500 C 234.713 44.762,234.811 48.344,234.885 48.458 C 234.985 48.614,235.885 48.667,238.431 48.667 L 241.842 48.667 242.004 48.239 C 242.268 47.545,242.217 11.025,241.951 10.500 L 241.740 10.083 238.540 10.038 C 235.519 9.995,235.322 10.012,235.004 10.330 M309.942 10.305 C 309.542 10.747,309.530 16.006,309.929 16.405 C 310.163 16.639,311.692 16.667,324.258 16.667 L 338.326 16.667 338.591 16.262 C 338.945 15.721,338.887 10.715,338.521 10.275 C 338.148 9.827,310.349 9.856,309.942 10.305 M376.250 10.187 C 369.662 10.746,364.088 13.999,360.706 19.256 C 360.514 19.554,359.683 21.271,359.337 22.083 C 359.180 22.451,358.788 23.717,358.511 24.750 C 357.905 27.007,357.791 30.876,358.322 31.161 C 358.851 31.444,365.088 31.388,365.378 31.098 C 365.546 30.930,365.643 30.220,365.715 28.626 C 365.936 23.739,368.254 20.058,372.371 18.054 C 374.611 16.964,376.829 16.686,383.386 16.675 C 386.362 16.670,388.311 16.601,388.511 16.494 C 388.956 16.256,389.010 10.701,388.571 10.262 C 388.274 9.965,379.496 9.912,376.250 10.187 M142.133 10.367 C 142.423 10.656,142.413 15.893,142.123 16.134 C 141.990 16.244,139.954 16.331,136.582 16.371 C 130.800 16.440,130.234 16.512,127.866 17.476 C 117.237 21.801,117.689 37.951,128.536 41.476 C 130.380 42.075,131.451 42.167,136.625 42.167 C 139.797 42.167,141.809 42.231,142.011 42.339 C 142.405 42.550,142.515 47.919,142.133 48.300 C 141.295 49.139,129.333 48.411,125.886 47.311 C 120.151 45.482,115.102 40.200,113.642 34.500 C 110.610 22.658,117.973 11.947,130.250 10.340 C 131.974 10.114,141.903 10.137,142.133 10.367 M269.885 10.576 C 263.730 12.137,258.643 16.987,256.769 23.083 C 256.515 23.908,256.234 24.828,256.143 25.126 C 255.669 26.684,255.678 32.052,256.158 33.833 C 256.581 35.404,256.907 36.422,257.034 36.575 C 257.107 36.662,257.167 36.829,257.167 36.945 C 257.167 37.848,259.050 40.879,260.917 42.978 C 262.822 45.122,266.916 47.556,269.667 48.182 C 269.987 48.255,270.615 48.402,271.061 48.508 C 272.642 48.886,272.667 48.837,272.667 45.357 C 272.667 42.084,272.697 42.184,271.583 41.834 C 265.740 39.999,262.271 33.942,263.237 27.264 C 263.394 26.185,263.584 25.141,263.662 24.943 C 264.722 22.230,265.295 21.316,266.983 19.646 C 268.203 18.438,270.571 17.001,271.346 16.999 C 271.476 16.999,271.827 16.850,272.125 16.668 L 272.667 16.338 272.667 13.452 C 272.667 9.751,272.760 9.848,269.885 10.576 M277.822 10.431 C 277.495 10.825,277.474 16.151,277.798 16.541 C 277.916 16.683,278.403 16.925,278.881 17.079 C 284.696 18.952,288.105 25.493,286.832 32.333 C 286.721 32.929,286.573 33.532,286.503 33.672 C 286.433 33.813,286.323 34.168,286.258 34.462 C 286.194 34.756,286.072 35.039,285.987 35.091 C 285.903 35.144,285.833 35.300,285.833 35.439 C 285.833 37.063,281.961 40.627,279.049 41.683 C 277.527 42.234,277.500 42.296,277.500 45.174 C 277.500 48.921,277.933 49.263,281.083 48.002 C 281.267 47.929,281.792 47.738,282.250 47.579 C 282.708 47.420,283.155 47.224,283.242 47.145 C 283.329 47.065,283.511 47.000,283.646 47.000 C 283.899 47.000,286.757 45.155,287.500 44.512 C 290.744 41.704,292.791 38.339,293.945 33.917 C 294.387 32.225,294.382 26.054,293.937 24.583 C 292.451 19.666,290.455 16.545,287.064 13.834 C 284.391 11.698,278.554 9.548,277.822 10.431 M191.899 10.597 C 192.072 11.048,192.011 15.835,191.827 16.178 C 191.663 16.485,191.427 16.500,186.702 16.503 C 179.840 16.507,177.863 16.752,175.583 17.883 C 171.298 20.007,168.838 24.040,168.835 28.946 C 168.833 31.289,169.034 31.167,165.167 31.167 C 161.382 31.167,161.499 31.224,161.503 29.363 C 161.525 19.843,167.974 12.376,177.645 10.672 C 180.131 10.234,191.736 10.173,191.899 10.597 M216.633 10.533 C 216.950 10.850,216.921 48.053,216.603 48.317 C 216.444 48.449,215.407 48.494,213.228 48.462 L 210.083 48.417 210.040 29.583 C 210.017 19.225,210.033 10.656,210.077 10.542 C 210.188 10.250,216.342 10.242,216.633 10.533 M241.750 29.417 L 241.750 48.417 238.512 48.462 C 236.033 48.497,235.243 48.458,235.140 48.295 C 235.066 48.179,235.004 44.667,235.003 40.492 C 235.001 34.812,234.950 32.850,234.800 32.700 C 234.653 32.553,233.164 32.500,229.139 32.500 C 222.653 32.500,223.333 32.876,223.333 29.293 C 223.333 25.729,222.653 26.101,229.361 26.000 L 234.917 25.917 235.004 18.167 C 235.052 13.904,235.109 10.396,235.129 10.371 C 235.150 10.347,236.648 10.347,238.458 10.371 L 241.750 10.417 241.750 29.417 M272.242 10.599 C 272.468 10.825,272.501 11.273,272.462 13.551 C 272.410 16.642,272.679 16.200,270.217 17.229 C 259.845 21.564,260.672 38.636,271.417 42.001 C 272.522 42.347,272.500 42.284,272.500 45.173 C 272.500 48.740,272.513 48.727,269.830 47.992 C 259.302 45.108,253.624 34.389,256.839 23.467 C 258.831 16.699,265.068 11.253,271.863 10.348 C 271.925 10.340,272.096 10.453,272.242 10.599 M279.917 10.670 C 291.279 12.868,297.622 27.133,292.158 38.203 C 290.287 41.995,286.355 45.831,283.083 47.055 C 280.941 47.857,279.676 48.205,278.833 48.227 L 277.917 48.250 277.871 45.399 C 277.819 42.155,277.695 42.441,279.451 41.769 C 289.941 37.755,289.948 21.555,279.462 17.067 C 277.735 16.328,277.839 16.564,277.836 13.383 C 277.833 10.537,277.923 10.217,278.667 10.412 C 278.804 10.448,279.367 10.564,279.917 10.670 M338.462 13.228 C 338.494 15.160,338.448 16.111,338.317 16.270 C 338.157 16.462,335.854 16.500,324.239 16.500 L 310.352 16.500 310.093 16.130 C 309.790 15.697,309.714 11.501,309.996 10.760 L 310.159 10.331 324.288 10.374 L 338.417 10.417 338.462 13.228 M388.467 10.533 C 388.782 10.849,388.743 15.900,388.423 16.220 C 388.222 16.421,387.138 16.477,382.131 16.542 C 376.524 16.616,375.980 16.649,374.667 16.998 C 369.046 18.493,365.500 23.119,365.500 28.956 C 365.500 31.266,365.666 31.167,361.819 31.167 C 358.071 31.167,358.164 31.211,358.172 29.446 C 358.213 19.864,364.638 12.358,374.250 10.662 C 376.345 10.292,388.119 10.186,388.467 10.533 M310.037 26.093 C 309.623 26.383,309.458 31.465,309.839 32.178 C 310.053 32.577,335.404 32.696,335.800 32.300 C 335.941 32.159,336.000 31.218,336.000 29.129 L 336.000 26.158 335.572 25.996 C 334.772 25.692,310.478 25.784,310.037 26.093 M335.670 26.333 C 336.009 26.869,335.869 31.969,335.511 32.161 C 334.897 32.489,310.422 32.390,310.145 32.058 C 309.715 31.541,309.726 26.774,310.158 26.342 C 310.623 25.877,335.377 25.869,335.670 26.333 M184.926 28.223 C 184.681 28.402,184.593 28.801,184.479 30.264 C 184.125 34.811,182.255 38.107,178.878 40.136 C 176.117 41.795,174.888 42.000,167.728 42.000 C 164.083 42.000,161.860 42.063,161.656 42.173 C 161.262 42.383,161.151 48.084,161.533 48.467 C 161.908 48.841,173.718 48.738,175.843 48.342 C 177.506 48.032,181.024 46.984,181.403 46.686 C 181.502 46.608,182.033 46.299,182.583 45.999 C 188.316 42.876,192.165 36.471,192.166 30.054 C 192.167 27.901,192.347 28.000,188.437 28.000 C 186.024 28.000,185.155 28.055,184.926 28.223 M381.642 28.112 C 381.284 28.207,381.172 28.666,381.169 30.039 C 381.160 34.349,378.744 38.400,374.949 40.468 C 372.539 41.781,371.823 41.888,364.750 41.991 C 361.267 42.042,358.323 42.144,358.208 42.218 C 357.918 42.406,357.911 48.177,358.200 48.467 C 358.437 48.704,370.430 48.739,371.667 48.505 C 372.079 48.428,372.829 48.287,373.333 48.192 C 380.156 46.909,386.011 41.757,388.040 35.250 C 388.742 32.998,389.077 28.768,388.592 28.283 C 388.321 28.012,382.553 27.870,381.642 28.112 M191.753 28.443 C 192.672 29.362,191.352 35.641,189.591 38.728 C 187.720 42.009,186.119 43.548,181.674 46.335 C 180.828 46.866,177.692 47.805,175.525 48.176 C 172.661 48.666,161.935 48.668,161.673 48.178 C 161.413 47.692,161.444 42.556,161.708 42.385 C 161.823 42.311,164.804 42.207,168.333 42.155 C 174.283 42.067,174.835 42.034,175.917 41.700 C 181.321 40.032,184.832 35.183,184.833 29.383 C 184.833 28.196,184.888 28.178,188.446 28.172 C 191.052 28.167,191.515 28.205,191.753 28.443 M388.422 28.505 C 388.709 28.823,388.716 28.987,388.531 31.130 C 388.000 37.296,384.756 42.533,379.608 45.533 C 378.953 45.915,378.302 46.323,378.161 46.440 C 377.724 46.804,374.174 47.837,372.192 48.176 C 369.328 48.666,358.601 48.668,358.339 48.178 C 358.079 47.692,358.111 42.556,358.375 42.385 C 358.490 42.311,361.471 42.209,365.000 42.159 L 371.417 42.068 372.833 41.599 C 377.996 39.891,381.239 35.507,381.389 30.037 C 381.442 28.090,381.294 28.167,384.995 28.167 C 387.920 28.167,388.134 28.188,388.422 28.505 M309.929 42.262 C 309.615 42.575,309.539 47.783,309.839 48.344 C 310.008 48.659,310.344 48.667,324.260 48.667 L 338.508 48.667 338.671 48.239 C 338.955 47.493,338.877 42.803,338.574 42.370 L 338.314 42.000 324.252 42.000 C 311.691 42.000,310.163 42.028,309.929 42.262 M338.222 42.376 C 338.477 42.562,338.503 42.906,338.462 45.501 L 338.417 48.417 324.333 48.460 C 311.241 48.500,310.235 48.483,310.042 48.220 C 309.696 47.750,309.754 42.864,310.109 42.471 C 310.463 42.080,337.691 41.987,338.222 42.376 " stroke="none" fill="#636363" fill-rule="evenodd"></path><path id="path4" d="M64.401 13.333 C 64.401 14.846,64.426 15.465,64.457 14.708 C 64.488 13.952,64.488 12.715,64.457 11.958 C 64.426 11.202,64.401 11.821,64.401 13.333 M388.568 13.333 C 388.568 14.846,388.593 15.465,388.624 14.708 C 388.655 13.952,388.655 12.715,388.624 11.958 C 388.593 11.202,388.568 11.821,388.568 13.333 M15.233 13.417 C 15.234 14.792,15.259 15.332,15.291 14.617 C 15.322 13.903,15.322 12.778,15.290 12.117 C 15.259 11.457,15.233 12.042,15.233 13.417 M309.900 13.417 C 309.900 14.792,309.926 15.332,309.957 14.617 C 309.989 13.903,309.988 12.778,309.957 12.117 C 309.925 11.457,309.900 12.042,309.900 13.417 M287.167 14.219 C 287.167 14.248,287.410 14.491,287.708 14.760 L 288.250 15.250 287.760 14.708 C 287.304 14.203,287.167 14.090,287.167 14.219 M261.578 15.542 L 260.583 16.583 261.625 15.589 C 262.198 15.041,262.667 14.573,262.667 14.547 C 262.667 14.424,262.502 14.574,261.578 15.542 M363.411 16.208 L 362.417 17.250 363.458 16.255 C 364.031 15.708,364.500 15.239,364.500 15.214 C 364.500 15.090,364.336 15.241,363.411 16.208 M118.000 16.250 C 117.595 16.662,117.301 17.000,117.347 17.000 C 117.393 17.000,117.762 16.662,118.167 16.250 C 118.572 15.838,118.865 15.500,118.819 15.500 C 118.774 15.500,118.405 15.838,118.000 16.250 M180.294 16.618 C 180.501 16.658,180.801 16.656,180.960 16.615 C 181.120 16.573,180.950 16.540,180.583 16.542 C 180.217 16.544,180.086 16.578,180.294 16.618 M376.794 16.618 C 377.001 16.658,377.301 16.656,377.460 16.615 C 377.620 16.573,377.450 16.540,377.083 16.542 C 376.717 16.544,376.586 16.578,376.794 16.618 M226.635 26.125 C 228.131 26.152,230.531 26.152,231.969 26.125 C 233.407 26.097,232.183 26.074,229.250 26.074 C 226.317 26.074,225.140 26.097,226.635 26.125 M316.625 26.125 C 320.040 26.150,325.627 26.150,329.042 26.125 C 332.456 26.100,329.662 26.079,322.833 26.079 C 316.004 26.079,313.210 26.100,316.625 26.125 M19.042 26.458 C 20.852 26.485,23.815 26.485,25.625 26.458 C 27.435 26.431,25.954 26.409,22.333 26.409 C 18.712 26.409,17.231 26.431,19.042 26.458 M68.031 26.458 C 69.835 26.485,72.835 26.485,74.697 26.458 C 76.560 26.431,75.083 26.409,71.417 26.409 C 67.750 26.409,66.226 26.431,68.031 26.458 M223.401 29.333 C 223.401 30.846,223.426 31.465,223.457 30.708 C 223.488 29.952,223.488 28.715,223.457 27.958 C 223.426 27.202,223.401 27.821,223.401 29.333 M309.900 29.083 C 309.900 30.458,309.926 30.999,309.957 30.284 C 309.989 29.569,309.988 28.444,309.957 27.784 C 309.925 27.124,309.900 27.708,309.900 29.083 M64.400 29.250 C 64.400 30.625,64.426 31.165,64.457 30.451 C 64.489 29.736,64.488 28.611,64.457 27.951 C 64.425 27.290,64.400 27.875,64.400 29.250 M15.232 29.250 C 15.233 30.533,15.259 31.036,15.291 30.368 C 15.322 29.699,15.322 28.649,15.290 28.034 C 15.258 27.420,15.232 27.967,15.232 29.250 M161.560 29.167 C 161.560 30.037,161.588 30.394,161.623 29.958 C 161.657 29.523,161.657 28.810,161.623 28.375 C 161.588 27.940,161.560 28.296,161.560 29.167 M358.226 29.250 C 358.225 30.075,358.254 30.434,358.288 30.047 C 358.323 29.660,358.324 28.985,358.289 28.547 C 358.255 28.109,358.226 28.425,358.226 29.250 M365.392 29.250 C 365.392 30.075,365.420 30.434,365.455 30.047 C 365.490 29.660,365.490 28.985,365.456 28.547 C 365.422 28.109,365.393 28.425,365.392 29.250 M168.724 29.417 C 168.724 30.150,168.754 30.429,168.789 30.037 C 168.824 29.645,168.824 29.045,168.788 28.704 C 168.752 28.363,168.723 28.683,168.724 29.417 M186.884 28.291 C 187.782 28.321,189.207 28.321,190.050 28.291 C 190.893 28.261,190.158 28.236,188.417 28.236 C 186.675 28.236,185.985 28.261,186.884 28.291 M381.775 28.292 C 381.733 28.360,382.684 28.397,383.891 28.373 C 387.877 28.295,388.293 28.232,385.052 28.199 C 383.292 28.181,381.818 28.223,381.775 28.292 M388.553 29.667 C 388.553 30.262,388.584 30.506,388.621 30.208 C 388.658 29.910,388.658 29.423,388.621 29.125 C 388.584 28.827,388.553 29.071,388.553 29.667 M163.542 31.124 C 164.435 31.154,165.898 31.154,166.792 31.124 C 167.685 31.094,166.954 31.070,165.167 31.070 C 163.379 31.070,162.648 31.094,163.542 31.124 M360.208 31.124 C 361.102 31.154,362.565 31.154,363.458 31.124 C 364.352 31.094,363.621 31.070,361.833 31.070 C 360.046 31.070,359.315 31.094,360.208 31.124 M19.542 32.125 C 21.627 32.151,25.040 32.151,27.125 32.125 C 29.210 32.098,27.504 32.077,23.333 32.077 C 19.162 32.077,17.456 32.098,19.542 32.125 M68.886 32.125 C 70.978 32.151,74.353 32.151,76.386 32.125 C 78.420 32.098,76.708 32.077,72.583 32.077 C 68.458 32.077,66.795 32.098,68.886 32.125 M85.333 33.552 C 85.333 33.581,85.577 33.825,85.875 34.094 L 86.417 34.583 85.927 34.042 C 85.471 33.537,85.333 33.423,85.333 33.552 M37.881 37.250 C 37.882 37.708,37.915 37.876,37.953 37.623 C 37.991 37.369,37.990 36.994,37.951 36.789 C 37.911 36.584,37.880 36.792,37.881 37.250 M93.881 37.750 C 93.882 38.208,93.915 38.376,93.953 38.123 C 93.991 37.869,93.990 37.494,93.951 37.289 C 93.911 37.084,93.880 37.292,93.881 37.750 M377.833 38.583 C 377.428 38.996,377.135 39.333,377.181 39.333 C 377.226 39.333,377.595 38.996,378.000 38.583 C 378.405 38.171,378.699 37.833,378.653 37.833 C 378.607 37.833,378.238 38.171,377.833 38.583 M181.075 38.708 L 180.417 39.417 181.125 38.758 C 181.515 38.395,181.833 38.077,181.833 38.050 C 181.833 37.923,181.688 38.050,181.075 38.708 M283.410 39.208 L 282.583 40.083 283.458 39.256 C 283.940 38.801,284.333 38.408,284.333 38.381 C 284.333 38.257,284.179 38.395,283.410 39.208 M266.500 39.083 C 266.811 39.404,267.103 39.667,267.149 39.667 C 267.195 39.667,266.978 39.404,266.667 39.083 C 266.356 38.762,266.064 38.500,266.018 38.500 C 265.972 38.500,266.189 38.762,266.500 39.083 M134.292 42.291 C 135.690 42.319,137.977 42.319,139.375 42.291 C 140.773 42.263,139.629 42.241,136.833 42.241 C 134.037 42.241,132.894 42.263,134.292 42.291 M164.698 42.291 C 166.227 42.319,168.777 42.319,170.364 42.291 C 171.951 42.264,170.700 42.242,167.583 42.241 C 164.467 42.241,163.168 42.264,164.698 42.291 M317.208 42.292 C 321.035 42.317,327.298 42.317,331.125 42.292 C 334.952 42.267,331.821 42.246,324.167 42.246 C 316.512 42.246,313.381 42.267,317.208 42.292 M361.542 42.291 C 363.077 42.319,365.590 42.319,367.125 42.291 C 368.660 42.264,367.404 42.241,364.333 42.241 C 361.262 42.241,360.006 42.264,361.542 42.291 M19.803 42.458 C 22.032 42.484,25.632 42.484,27.803 42.458 C 29.974 42.432,28.150 42.410,23.750 42.410 C 19.350 42.410,17.574 42.432,19.803 42.458 M69.053 42.458 C 71.237 42.485,74.762 42.485,76.886 42.458 C 79.011 42.432,77.225 42.410,72.917 42.410 C 68.608 42.410,66.870 42.432,69.053 42.458 M161.574 42.548 C 161.528 42.667,161.512 43.960,161.538 45.423 L 161.584 48.083 161.667 45.208 C 161.749 42.384,161.739 42.117,161.574 42.548 M358.240 42.548 C 358.195 42.667,358.179 43.960,358.204 45.423 L 358.251 48.083 358.334 45.208 C 358.415 42.384,358.406 42.117,358.240 42.548 M309.901 45.333 C 309.901 46.846,309.926 47.465,309.957 46.708 C 309.988 45.952,309.988 44.715,309.957 43.958 C 309.926 43.202,309.901 43.821,309.901 45.333 M15.234 45.500 C 15.234 46.921,15.259 47.502,15.291 46.792 C 15.322 46.081,15.322 44.919,15.291 44.208 C 15.259 43.498,15.234 44.079,15.234 45.500 M64.400 45.500 C 64.400 46.921,64.426 47.502,64.457 46.792 C 64.488 46.081,64.488 44.919,64.457 44.208 C 64.426 43.498,64.400 44.079,64.400 45.500 M31.708 48.453 C 31.960 48.491,32.373 48.491,32.625 48.453 C 32.877 48.415,32.671 48.383,32.167 48.383 C 31.662 48.383,31.456 48.415,31.708 48.453 M80.708 48.453 C 80.960 48.491,81.373 48.491,81.625 48.453 C 81.877 48.415,81.671 48.383,81.167 48.383 C 80.662 48.383,80.456 48.415,80.708 48.453 M131.288 48.454 C 131.584 48.490,132.109 48.491,132.455 48.455 C 132.800 48.419,132.558 48.389,131.917 48.388 C 131.275 48.387,130.992 48.417,131.288 48.454 M172.708 48.453 C 172.960 48.491,173.373 48.491,173.625 48.453 C 173.877 48.415,173.671 48.383,173.167 48.383 C 172.662 48.383,172.456 48.415,172.708 48.453 M369.295 48.454 C 369.594 48.491,370.044 48.490,370.295 48.452 C 370.545 48.414,370.300 48.384,369.750 48.385 C 369.200 48.386,368.995 48.417,369.295 48.454 " stroke="none" fill="#7c7c7c" fill-rule="evenodd"></path></g></svg>